<svg width="512" height="512" viewBox="0 0 512 512" xmlns="http://www.w3.org/2000/svg"><title>Slice 1</title><g fill="none" fill-rule="evenodd"><path fill="#644FA1" d="M0 0h512v512H0z"/><g fill="#FFF"><path d="M178.29 172.96c6.649-1.173 13.688-1.955 21.51-2.033 15.485-.079 32.927 2.58 51.385 10.402 68.984 29.251 99.096 107.855 106.526 129.99 10.95-15.565 17.363-33.788 17.363-53.42 0-56.782-61.866-103.084-114.034-103.006-52.09.156-64.682 6.804-82.75 18.067z"/><path d="M161.866 209.642c-9.933.235-17.363 1.251-22.212 1.955-9.542 15.486-15.643 33.24-17.207 52.325a138.62 138.62 0 0 1 33.788-4.38c13.922-.079 29.642 1.955 46.302 7.9 58.112 20.725 85.721 73.363 92.604 87.52 16.112-4.85 30.66-12.593 42.782-22.526-8.916-19.632-21.352-41.766-39.497-62.257-47.476-53.498-103.554-61.241-136.56-60.537z"/><path d="M128.939 290.357c-2.112 0-3.755.157-5.632.157 7.04 49.665 44.738 89.397 93.386 99.408a125.46 125.46 0 0 1-13.922-40.358c16.112 7.118 34.414 11.107 53.733 11.107 2.815 0 5.553-.157 8.29-.313-5.475-7.9-11.888-15.877-19.553-23.542-39.341-39.263-86.738-46.302-116.302-46.459zM331.51 171.083c27.53-2.425 60.85-14.548 65.229-39.028 4.85-27.062-14.939-37.855-21.196-23.308-7.195 16.816-1.564 40.75-44.033 62.336zM310.705 159.508c21.9-18.302 29.955-41.61 20.726-62.258-8.994-20.1-32.067-16.112-30.19-4.458 2.268 13.53 28.079 24.715 9.464 66.716z"/></g></g></svg>